<svg width="24" height="24" viewBox="0 0 24 24" fill="none" xmlns="http://www.w3.org/2000/svg">
<path d="M9.56945 18.82C9.37945 18.82 9.18945 18.75 9.03945 18.6L2.96945 12.53C2.67945 12.24 2.67945 11.76 2.96945 11.47L9.03945 5.4C9.32945 5.11 9.80945 5.11 10.0995 5.4C10.3895 5.69 10.3895 6.17 10.0995 6.46L4.55945 12L10.0995 17.54C10.3895 17.83 10.3895 18.31 10.0995 18.6C9.95945 18.75 9.75945 18.82 9.56945 18.82Z" fill="#292D32"/>
<path d="M20.4999 12.75H3.66992C3.25992 12.75 2.91992 12.41 2.91992 12C2.91992 11.59 3.25992 11.25 3.66992 11.25H20.4999C20.9099 11.25 21.2499 11.59 21.2499 12C21.2499 12.41 20.9099 12.75 20.4999 12.75Z" fill="#292D32"/>
</svg>
