<svg width="24" height="24" viewBox="0 0 24 24" fill="none" xmlns="http://www.w3.org/2000/svg">
<path d="M9 10.75C7.48 10.75 6.25 9.52 6.25 8C6.25 6.48 7.48 5.25 9 5.25C10.52 5.25 11.75 6.48 11.75 8C11.75 9.52 10.52 10.75 9 10.75ZM9 6.75C8.31 6.75 7.75 7.31 7.75 8C7.75 8.69 8.31 9.25 9 9.25C9.69 9.25 10.25 8.69 10.25 8C10.25 7.31 9.69 6.75 9 6.75Z" fill="#292D32"/>
<path d="M15 22.75H9C3.57 22.75 1.25 20.43 1.25 15V9C1.25 3.57 3.57 1.25 9 1.25H13C13.41 1.25 13.75 1.59 13.75 2C13.75 2.41 13.41 2.75 13 2.75H9C4.39 2.75 2.75 4.39 2.75 9V15C2.75 19.61 4.39 21.25 9 21.25H15C19.61 21.25 21.25 19.61 21.25 15V10C21.25 9.59 21.59 9.25 22 9.25C22.41 9.25 22.75 9.59 22.75 10V15C22.75 20.43 20.43 22.75 15 22.75Z" fill="#292D32"/>
<path d="M18 8.75C17.59 8.75 17.25 8.41 17.25 8V2C17.25 1.7 17.43 1.42 17.71 1.31C17.99 1.2 18.31 1.26 18.53 1.47L20.53 3.47C20.82 3.76 20.82 4.24 20.53 4.53C20.24 4.82 19.76 4.82 19.47 4.53L18.75 3.81V8C18.75 8.41 18.41 8.75 18 8.75Z" fill="#292D32"/>
<path d="M16.0004 4.75C15.8104 4.75 15.6204 4.68 15.4704 4.53C15.1804 4.24 15.1804 3.76 15.4704 3.47L17.4704 1.47C17.7604 1.18 18.2404 1.18 18.5304 1.47C18.8204 1.76 18.8204 2.24 18.5304 2.53L16.5304 4.53C16.3804 4.68 16.1904 4.75 16.0004 4.75Z" fill="#292D32"/>
<path d="M2.67029 19.7C2.43029 19.7 2.19029 19.58 2.05029 19.37C1.82029 19.03 1.91029 18.56 2.25029 18.33L7.18029 15.02C8.26029 14.3 9.75029 14.38 10.7303 15.21L11.0603 15.5C11.5603 15.93 12.4103 15.93 12.9003 15.5L17.0603 11.93C18.1203 11.02 19.7903 11.02 20.8603 11.93L22.4903 13.33C22.8003 13.6 22.8403 14.07 22.5703 14.39C22.3003 14.7 21.8203 14.74 21.5103 14.47L19.8803 13.07C19.3803 12.64 18.5403 12.64 18.0403 13.07L13.8803 16.64C12.8203 17.55 11.1503 17.55 10.0803 16.64L9.75029 16.35C9.29029 15.96 8.53029 15.92 8.02029 16.27L3.10029 19.58C2.96029 19.66 2.81029 19.7 2.67029 19.7Z" fill="#292D32"/>
</svg>
